<svg width="200" height="200" viewBox="0 0 200 200" fill="none" xmlns="http://www.w3.org/2000/svg">
<rect x="8.5" y="8.5" width="183" height="183" rx="20.5" fill="black" stroke="#175DAF" stroke-width="3"/>
<path d="M46.5 112.5V149H34.9375V58H64.4375C68.5208 58.0833 72.375 58.7292 76 59.9375C79.6667 61.1458 82.875 62.8958 85.625 65.1875C88.375 67.4792 90.5417 70.3125 92.125 73.6875C93.75 77.0625 94.5625 80.9375 94.5625 85.3125C94.5625 89.6875 93.75 93.5625 92.125 96.9375C90.5417 100.271 88.375 103.083 85.625 105.375C82.875 107.667 79.6667 109.417 76 110.625C72.375 111.833 68.5208 112.458 64.4375 112.5H46.5ZM46.5 103H64.4375C67.1042 102.958 69.5625 102.542 71.8125 101.75C74.0625 100.917 76.0208 99.75 77.6875 98.25C79.3542 96.75 80.6458 94.9375 81.5625 92.8125C82.5208 90.6458 83 88.1875 83 85.4375C83 82.6875 82.5208 80.2083 81.5625 78C80.6458 75.7917 79.375 73.9167 77.75 72.375C76.0833 70.8333 74.1042 69.6458 71.8125 68.8125C69.5625 67.9792 67.1042 67.5417 64.4375 67.5H46.5V103ZM138.938 93.6875L158.562 58H172.188L145.75 103.125L172.812 149H159.312L139.188 112.625L119 149H105.312L132.438 103.125L106 58H119.562L138.938 93.6875Z" fill="#050421"/>
<path d="M46.5 112.5V111.5H45.5V112.5H46.5ZM46.5 149V150H47.5V149H46.5ZM34.9375 149H33.9375V150H34.9375V149ZM34.9375 58V57H33.9375V58H34.9375ZM64.4375 58L64.4579 57.0002L64.4477 57H64.4375V58ZM76 59.9375L75.6838 60.8862L75.687 60.8873L76 59.9375ZM92.125 73.6875L91.2196 74.1122L91.224 74.1213L92.125 73.6875ZM92.125 96.9375L91.224 96.5037L91.2217 96.5084L92.125 96.9375ZM76 110.625L75.687 109.675L75.6838 109.676L76 110.625ZM64.4375 112.5V113.5L64.4477 113.5L64.4375 112.5ZM46.5 103H45.5V104H46.5V103ZM64.4375 103V104H64.4453L64.4531 104L64.4375 103ZM71.8125 101.75L72.1444 102.693L72.1521 102.691L72.1598 102.688L71.8125 101.75ZM81.5625 92.8125L80.6479 92.408L80.6443 92.4164L81.5625 92.8125ZM81.5625 78L80.6389 78.3834L80.642 78.3908L80.6452 78.3981L81.5625 78ZM77.75 72.375L78.4383 71.6495L78.429 71.6409L77.75 72.375ZM71.8125 68.8125L71.4652 69.7503L71.4708 69.7523L71.8125 68.8125ZM64.4375 67.5L64.4531 66.5001L64.4453 66.5H64.4375V67.5ZM46.5 67.5V66.5H45.5V67.5H46.5ZM45.5 112.5V149H47.5V112.5H45.5ZM46.5 148H34.9375V150H46.5V148ZM35.9375 149V58H33.9375V149H35.9375ZM34.9375 59H64.4375V57H34.9375V59ZM64.4171 58.9998C68.4067 59.0812 72.1606 59.7118 75.6838 60.8862L76.3162 58.9888C72.5894 57.7465 68.6349 57.0855 64.4579 57.0002L64.4171 58.9998ZM75.687 60.8873C79.2436 62.0593 82.3388 63.7507 84.9848 65.9557L86.2652 64.4193C83.4112 62.0409 80.0897 60.2323 76.313 58.9877L75.687 60.8873ZM84.9848 65.9557C87.6177 68.1498 89.6959 70.8641 91.2197 74.1122L93.0303 73.2628C91.3875 69.7609 89.1323 66.8086 86.2652 64.4193L84.9848 65.9557ZM91.224 74.1213C92.7738 77.34 93.5625 81.0626 93.5625 85.3125H95.5625C95.5625 80.8124 94.7262 76.785 93.026 73.2537L91.224 74.1213ZM93.5625 85.3125C93.5625 89.5624 92.7738 93.285 91.224 96.5037L93.026 97.3713C94.7262 93.84 95.5625 89.8126 95.5625 85.3125H93.5625ZM91.2217 96.5084C89.6985 99.7152 87.6201 102.411 84.9848 104.607L86.2652 106.143C89.1299 103.756 91.3848 100.827 93.0283 97.3666L91.2217 96.5084ZM84.9848 104.607C82.3388 106.812 79.2436 108.503 75.687 109.675L76.313 111.575C80.0897 110.33 83.4112 108.522 86.2652 106.143L84.9848 104.607ZM75.6838 109.676C72.1641 110.85 68.4137 111.459 64.4273 111.5L64.4477 113.5C68.6279 113.457 72.5859 112.817 76.3162 111.574L75.6838 109.676ZM64.4375 111.5H46.5V113.5H64.4375V111.5ZM46.5 104H64.4375V102H46.5V104ZM64.4531 104C67.215 103.957 69.7815 103.525 72.1444 102.693L71.4806 100.807C69.3435 101.559 66.9934 101.96 64.4219 102L64.4531 104ZM72.1598 102.688C74.52 101.814 76.5894 100.584 78.3565 98.9933L77.0185 97.5067C75.4523 98.9164 73.605 100.02 71.4652 100.812L72.1598 102.688ZM78.3565 98.9933C80.1337 97.3937 81.5088 95.4616 82.4807 93.2086L80.6443 92.4164C79.7828 94.4134 78.5746 96.1063 77.0185 97.5067L78.3565 98.9933ZM82.477 93.217C83.5001 90.9041 84 88.3046 84 85.4375H82C82 88.0704 81.5416 90.3876 80.648 92.408L82.477 93.217ZM84 85.4375C84 82.57 83.4999 79.9525 82.4798 77.6019L80.6452 78.3981C81.5417 80.4641 82 82.805 82 85.4375H84ZM82.4861 77.6166C81.5195 75.2879 80.1715 73.2939 78.4383 71.6495L77.0617 73.1005C78.5785 74.5394 79.7722 76.2954 80.6389 78.3834L82.4861 77.6166ZM78.429 71.6409C76.6577 70.0024 74.5615 68.7481 72.1542 67.8727L71.4708 69.7523C73.6468 70.5436 75.509 71.6643 77.071 73.1091L78.429 71.6409ZM72.1598 67.8748C69.7924 66.9979 67.2205 66.5434 64.4531 66.5001L64.4219 68.4999C66.9878 68.54 69.3326 68.9604 71.4652 69.7502L72.1598 67.8748ZM64.4375 66.5H46.5V68.5H64.4375V66.5ZM45.5 67.5V103H47.5V67.5H45.5ZM138.938 93.6875L138.059 94.1646L138.932 95.773L139.814 94.1694L138.938 93.6875ZM158.562 58V57H157.971L157.686 57.5181L158.562 58ZM172.188 58L173.05 58.5055L173.932 57H172.188V58ZM145.75 103.125L144.887 102.619L144.59 103.127L144.889 103.633L145.75 103.125ZM172.812 149V150H174.563L173.674 148.492L172.812 149ZM159.312 149L158.437 149.484L158.723 150H159.312V149ZM139.188 112.625L140.063 112.141L139.189 110.562L138.313 112.14L139.188 112.625ZM119 149V150H119.589L119.874 149.485L119 149ZM105.312 149L104.452 148.491L103.559 150H105.312V149ZM132.438 103.125L133.298 103.634L133.598 103.127L133.3 102.619L132.438 103.125ZM106 58V57H104.255L105.137 58.5055L106 58ZM119.562 58L120.441 57.5229L120.157 57H119.562V58ZM139.814 94.1694L159.439 58.4819L157.686 57.5181L138.061 93.2056L139.814 94.1694ZM158.562 59H172.188V57H158.562V59ZM171.325 57.4945L144.887 102.619L146.613 103.631L173.05 58.5055L171.325 57.4945ZM144.889 103.633L171.951 149.508L173.674 148.492L146.611 102.617L144.889 103.633ZM172.812 148H159.312V150H172.812V148ZM160.188 148.516L140.063 112.141L138.312 113.109L158.437 149.484L160.188 148.516ZM138.313 112.14L118.126 148.515L119.874 149.485L140.062 113.11L138.313 112.14ZM119 148H105.312V150H119V148ZM106.173 149.509L133.298 103.634L131.577 102.616L104.452 148.491L106.173 149.509ZM133.3 102.619L106.863 57.4945L105.137 58.5055L131.575 103.631L133.3 102.619ZM106 59H119.562V57H106V59ZM118.684 58.4771L138.059 94.1646L139.816 93.2104L120.441 57.5229L118.684 58.4771Z" fill="#40A5DD"/>
</svg>
