<svg width="250" height="200" viewBox="0 0 250 200" fill="none" xmlns="http://www.w3.org/2000/svg">
<rect x="2.5" y="41.5" width="244" height="117" rx="20.5" fill="black" stroke="#175DAF" stroke-width="3"/>
<path d="M32.5 112.5V149H20.9375V58H50.4375C54.5208 58.0833 58.375 58.7292 62 59.9375C65.6667 61.1458 68.875 62.8958 71.625 65.1875C74.375 67.4792 76.5417 70.3125 78.125 73.6875C79.75 77.0625 80.5625 80.9375 80.5625 85.3125C80.5625 89.6875 79.75 93.5625 78.125 96.9375C76.5417 100.271 74.375 103.083 71.625 105.375C68.875 107.667 65.6667 109.417 62 110.625C58.375 111.833 54.5208 112.458 50.4375 112.5H32.5ZM32.5 103H50.4375C53.1042 102.958 55.5625 102.542 57.8125 101.75C60.0625 100.917 62.0208 99.75 63.6875 98.25C65.3542 96.75 66.6458 94.9375 67.5625 92.8125C68.5208 90.6458 69 88.1875 69 85.4375C69 82.6875 68.5208 80.2083 67.5625 78C66.6458 75.7917 65.375 73.9167 63.75 72.375C62.0833 70.8333 60.1042 69.6458 57.8125 68.8125C55.5625 67.9792 53.1042 67.5417 50.4375 67.5H32.5V103ZM140.188 125.438H109.812L102.5 149H90.9375L120.312 58H130L158.875 149H147.375L140.188 125.438ZM112.938 115.375H137.125L125.125 75.875L112.938 115.375ZM201.812 93.6875L221.438 58H235.062L208.625 103.125L235.688 149H222.188L202.062 112.625L181.875 149H168.188L195.312 103.125L168.875 58H182.438L201.812 93.6875Z" fill="#050421"/>
<path d="M32.5 112.5V111.5H31.5V112.5H32.5ZM32.5 149V150H33.5V149H32.5ZM20.9375 149H19.9375V150H20.9375V149ZM20.9375 58V57H19.9375V58H20.9375ZM50.4375 58L50.4579 57.0002L50.4477 57H50.4375V58ZM62 59.9375L61.6838 60.8862L61.687 60.8873L62 59.9375ZM78.125 73.6875L77.2196 74.1122L77.224 74.1213L78.125 73.6875ZM78.125 96.9375L77.224 96.5037L77.2217 96.5084L78.125 96.9375ZM62 110.625L61.687 109.675L61.6838 109.676L62 110.625ZM50.4375 112.5L50.4375 113.5L50.4477 113.5L50.4375 112.5ZM32.5 103H31.5V104H32.5V103ZM50.4375 103V104H50.4453L50.4531 104L50.4375 103ZM57.8125 101.75L58.1444 102.693L58.1521 102.691L58.1598 102.688L57.8125 101.75ZM67.5625 92.8125L66.6479 92.408L66.6443 92.4164L67.5625 92.8125ZM67.5625 78L66.6389 78.3834L66.642 78.3908L66.6452 78.3981L67.5625 78ZM63.75 72.375L64.4383 71.6495L64.429 71.6409L63.75 72.375ZM57.8125 68.8125L57.4652 69.7503L57.4708 69.7523L57.8125 68.8125ZM50.4375 67.5L50.4531 66.5001L50.4453 66.5H50.4375V67.5ZM32.5 67.5V66.5H31.5V67.5H32.5ZM31.5 112.5V149H33.5V112.5H31.5ZM32.5 148H20.9375V150H32.5V148ZM21.9375 149V58H19.9375V149H21.9375ZM20.9375 59H50.4375V57H20.9375V59ZM50.4171 58.9998C54.4067 59.0812 58.1606 59.7118 61.6838 60.8862L62.3162 58.9888C58.5894 57.7465 54.6349 57.0855 50.4579 57.0002L50.4171 58.9998ZM61.687 60.8873C65.2436 62.0593 68.3388 63.7507 70.9848 65.9557L72.2652 64.4193C69.4112 62.0409 66.0897 60.2323 62.313 58.9877L61.687 60.8873ZM70.9848 65.9557C73.6177 68.1498 75.6959 70.8641 77.2197 74.1122L79.0303 73.2628C77.3875 69.7609 75.1323 66.8086 72.2652 64.4193L70.9848 65.9557ZM77.224 74.1213C78.7738 77.34 79.5625 81.0626 79.5625 85.3125H81.5625C81.5625 80.8124 80.7262 76.785 79.026 73.2537L77.224 74.1213ZM79.5625 85.3125C79.5625 89.5624 78.7738 93.285 77.224 96.5037L79.026 97.3713C80.7262 93.84 81.5625 89.8126 81.5625 85.3125H79.5625ZM77.2217 96.5084C75.6985 99.7152 73.6201 102.411 70.9848 104.607L72.2652 106.143C75.1299 103.756 77.3848 100.827 79.0283 97.3666L77.2217 96.5084ZM70.9848 104.607C68.3388 106.812 65.2436 108.503 61.687 109.675L62.313 111.575C66.0897 110.33 69.4112 108.522 72.2652 106.143L70.9848 104.607ZM61.6838 109.676C58.1641 110.85 54.4137 111.459 50.4273 111.5L50.4477 113.5C54.6279 113.457 58.5859 112.817 62.3162 111.574L61.6838 109.676ZM50.4375 111.5H32.5V113.5H50.4375V111.5ZM32.5 104H50.4375V102H32.5V104ZM50.4531 104C53.215 103.957 55.7815 103.525 58.1444 102.693L57.4806 100.807C55.3435 101.559 52.9934 101.96 50.4219 102L50.4531 104ZM58.1598 102.688C60.52 101.814 62.5894 100.584 64.3565 98.9933L63.0185 97.5067C61.4523 98.9164 59.605 100.02 57.4652 100.812L58.1598 102.688ZM64.3565 98.9933C66.1337 97.3937 67.5088 95.4616 68.4807 93.2086L66.6443 92.4164C65.7828 94.4134 64.5746 96.1063 63.0185 97.5067L64.3565 98.9933ZM68.477 93.217C69.5001 90.9041 70 88.3046 70 85.4375H68C68 88.0704 67.5416 90.3876 66.648 92.408L68.477 93.217ZM70 85.4375C70 82.57 69.4999 79.9525 68.4798 77.6019L66.6452 78.3981C67.5417 80.4641 68 82.805 68 85.4375H70ZM68.4861 77.6166C67.5195 75.2879 66.1715 73.2939 64.4383 71.6495L63.0617 73.1005C64.5785 74.5394 65.7722 76.2954 66.6389 78.3834L68.4861 77.6166ZM64.429 71.6409C62.6577 70.0024 60.5615 68.7481 58.1542 67.8727L57.4708 69.7523C59.6468 70.5436 61.509 71.6643 63.071 73.1091L64.429 71.6409ZM58.1598 67.8748C55.7924 66.9979 53.2205 66.5434 50.4531 66.5001L50.4219 68.4999C52.9878 68.54 55.3326 68.9604 57.4652 69.7502L58.1598 67.8748ZM50.4375 66.5H32.5V68.5H50.4375V66.5ZM31.5 67.5V103H33.5V67.5H31.5ZM140.188 125.438L141.144 125.146L140.928 124.438H140.188V125.438ZM109.812 125.438V124.438H109.076L108.857 125.141L109.812 125.438ZM102.5 149V150H103.237L103.455 149.296L102.5 149ZM90.9375 149L89.9859 148.693L89.5639 150H90.9375V149ZM120.312 58V57H119.584L119.361 57.6928L120.312 58ZM130 58L130.953 57.6976L130.732 57H130V58ZM158.875 149V150H160.241L159.828 148.698L158.875 149ZM147.375 149L146.419 149.292L146.635 150H147.375V149ZM112.938 115.375L111.982 115.08L111.582 116.375H112.938V115.375ZM137.125 115.375V116.375H138.474L138.082 115.084L137.125 115.375ZM125.125 75.875L126.082 75.5843L125.132 72.4592L124.169 75.5802L125.125 75.875ZM140.188 124.438H109.812V126.438H140.188V124.438ZM108.857 125.141L101.545 148.704L103.455 149.296L110.768 125.734L108.857 125.141ZM102.5 148H90.9375V150H102.5V148ZM91.8891 149.307L121.264 58.3072L119.361 57.6928L89.9859 148.693L91.8891 149.307ZM120.312 59H130V57H120.312V59ZM129.047 58.3024L157.922 149.302L159.828 148.698L130.953 57.6976L129.047 58.3024ZM158.875 148H147.375V150H158.875V148ZM148.331 148.708L141.144 125.146L139.231 125.729L146.419 149.292L148.331 148.708ZM112.938 116.375H137.125V114.375H112.938V116.375ZM138.082 115.084L126.082 75.5843L124.168 76.1657L136.168 115.666L138.082 115.084ZM124.169 75.5802L111.982 115.08L113.893 115.67L126.081 76.1698L124.169 75.5802ZM201.812 93.6875L200.934 94.1646L201.807 95.773L202.689 94.1694L201.812 93.6875ZM221.438 58V57H220.846L220.561 57.5181L221.438 58ZM235.062 58L235.925 58.5055L236.807 57H235.062V58ZM208.625 103.125L207.762 102.619L207.465 103.127L207.764 103.633L208.625 103.125ZM235.688 149V150H237.438L236.549 148.492L235.688 149ZM222.188 149L221.312 149.484L221.598 150H222.188V149ZM202.062 112.625L202.938 112.141L202.064 110.562L201.188 112.14L202.062 112.625ZM181.875 149V150H182.464L182.749 149.485L181.875 149ZM168.188 149L167.327 148.491L166.434 150H168.188V149ZM195.312 103.125L196.173 103.634L196.473 103.127L196.175 102.619L195.312 103.125ZM168.875 58V57H167.13L168.012 58.5055L168.875 58ZM182.438 58L183.316 57.5229L183.032 57H182.438V58ZM202.689 94.1694L222.314 58.4819L220.561 57.5181L200.936 93.2056L202.689 94.1694ZM221.438 59H235.062V57H221.438V59ZM234.2 57.4945L207.762 102.619L209.488 103.631L235.925 58.5055L234.2 57.4945ZM207.764 103.633L234.826 149.508L236.549 148.492L209.486 102.617L207.764 103.633ZM235.688 148H222.188V150H235.688V148ZM223.063 148.516L202.938 112.141L201.187 113.109L221.312 149.484L223.063 148.516ZM201.188 112.14L181.001 148.515L182.749 149.485L202.937 113.11L201.188 112.14ZM181.875 148H168.188V150H181.875V148ZM169.048 149.509L196.173 103.634L194.452 102.616L167.327 148.491L169.048 149.509ZM196.175 102.619L169.738 57.4945L168.012 58.5055L194.45 103.631L196.175 102.619ZM168.875 59H182.438V57H168.875V59ZM181.559 58.4771L200.934 94.1646L202.691 93.2104L183.316 57.5229L181.559 58.4771Z" fill="#40A5DD"/>
</svg>
